<svg width="812" height="683" fill="none" xmlns="http://www.w3.org/2000/svg"><path d="M505.118 631.576c12.119 8.122 25.928 49.18 25.928 49.18s-43.226 2.818-55.341-5.3a26.407 26.407 0 01-7.243-36.652 26.402 26.402 0 0127.139-11.19 26.412 26.412 0 019.517 3.962z" fill="#F1F1F1"/><path d="M531.538 680.447l-.677.54c-24.701-30.988-61.976-41.691-62.349-41.796l.233-.834c.376.105 37.913 10.877 62.793 42.09z" fill="#fff"/><path d="M569.934 615.196c-.773 20.177-39.13 66.254-39.13 66.254s-34.699-48.889-33.929-69.059a36.553 36.553 0 0137.932-35.127 36.557 36.557 0 0135.127 37.932z" fill="#F1F1F1"/><path d="M531.526 681.805l-1.128-.406c18.583-51.601 4.136-103.294 3.988-103.81l1.152-.33c.149.519 14.706 52.57-4.012 104.546z" fill="#fff"/><path d="M432.206 500.39H103.469a22.118 22.118 0 01-22.09-22.091V102.618a22.115 22.115 0 0122.09-22.09h328.737a22.114 22.114 0 0122.091 22.09v375.681a22.118 22.118 0 01-22.091 22.091z" fill="#E6E6E6"/><path d="M416.845 481.979H118.831a19.637 19.637 0 01-19.614-19.614V118.553a19.637 19.637 0 0119.614-19.614h298.014a19.635 19.635 0 0119.614 19.614v343.812a19.635 19.635 0 01-19.614 19.614z" fill="#fff"/><path d="M404.99 147.873H254.65a4.903 4.903 0 110-9.806h150.34a4.902 4.902 0 110 9.806zm0 19.375H254.65a4.9 4.9 0 01-3.467-1.437 4.902 4.902 0 013.467-8.37h150.34a4.907 4.907 0 014.903 4.903 4.903 4.903 0 01-4.903 4.904zm-85.171 19.374H254.65a4.903 4.903 0 110-9.807h65.169a4.903 4.903 0 010 9.807zm67.041 78.251H149.52a4.902 4.902 0 110-9.806h237.34a4.903 4.903 0 110 9.806zm0 19.375H149.521a4.904 4.904 0 010-9.807H386.86a4.903 4.903 0 110 9.807zm0 43.979H149.52a4.907 4.907 0 01-4.903-4.903 4.903 4.903 0 014.903-4.903h237.34a4.9 4.9 0 014.903 4.903 4.902 4.902 0 01-4.903 4.903zm0 19.374H149.521a4.903 4.903 0 110-9.806H386.86a4.902 4.902 0 110 9.806zm0 43.98H149.52a4.907 4.907 0 01-4.903-4.904 4.907 4.907 0 014.903-4.903h237.34a4.905 4.905 0 013.467 8.371 4.905 4.905 0 01-3.467 1.436zm0 19.374H149.521a4.903 4.903 0 110-9.807H386.86a4.9 4.9 0 013.467 1.437 4.9 4.9 0 010 6.934 4.899 4.899 0 01-3.467 1.436z" fill="#E4E4E4"/><path d="M386.819 464.622H321.65a4.899 4.899 0 01-4.903-4.903c0-1.301.516-2.548 1.436-3.467a4.9 4.9 0 013.467-1.437h65.169a4.903 4.903 0 010 9.807z" fill="#00ADB5"/><path d="M213.033 162.918a46.449 46.449 0 01-10.11 28.99 45.692 45.692 0 01-7.2 7.26 46.437 46.437 0 01-25.48 10.22 46.316 46.316 0 01-11.47-.47c-.89-.14-1.76-.31-2.63-.51a43.67 43.67 0 01-4.48-1.25 46.414 46.414 0 01-16.36-9.51 41.96 41.96 0 01-3.47-3.46 46.611 46.611 0 01-10.527-43.024 46.612 46.612 0 0128.967-31.971 46.613 46.613 0 0142.791 5.483 46.615 46.615 0 0119.969 38.242z" fill="#E4E4E4"/><path d="M164.78 178.832c10.553 0 19.109-8.555 19.109-19.109 0-10.553-8.556-19.109-19.109-19.109-10.554 0-19.109 8.556-19.109 19.109 0 10.554 8.555 19.109 19.109 19.109z" fill="#9E616A"/><path d="M186.053 150.408a7.73 7.73 0 00-1.37-4.8l-.69-.98c-2.49-4.8-6.6-9.12-9.61-12.28-2.26-2.37-4.52-3.51-6.69-3.4a5.995 5.995 0 00-4.09 2.04 14.72 14.72 0 00-14 7.99c-9.15 4.83-6.42 19.09-6.39 19.24l2.21 3.71.25-.47c0-.01.03-.05.07-.13.43-.77 2.77-5.05 4.35-7.76a7.683 7.683 0 012.25-2.32 11.21 11.21 0 014.96-1.87l4.86-.63-1.84 2.76h13.24l5.09-.6c.51 2.09 4.55 10.2 5.04 11.18l.04.08.27.55 1.51-4.15a16.04 16.04 0 00.54-8.16z" fill="#2F2E41"/><path d="M138.543 200.298c.82-1.08 5.07-6.12 14.85-8.79l5.18-5.77 20.77-3.31 10.57 5.84 13.01 3.64a45.692 45.692 0 01-7.2 7.26 46.437 46.437 0 01-25.48 10.22 46.32 46.32 0 01-11.47-.47c-.89-.14-1.76-.31-2.63-.51a43.67 43.67 0 01-4.48-1.25 46.158 46.158 0 01-13.12-6.86c-.05-.03-.09-.07-.14-.1l.14.1zM532.709 23.389H2.967A2.97 2.97 0 010 20.42V2.967A2.97 2.97 0 012.967 0H532.71a2.97 2.97 0 012.967 2.967v17.454a2.972 2.972 0 01-2.967 2.968z" fill="#00ADB5"/><path d="M517.042 7.943h-18.414a1.365 1.365 0 010-2.728h18.414a1.362 1.362 0 011.27 1.889 1.372 1.372 0 01-.745.739 1.362 1.362 0 01-.525.1zm0 5.115h-18.414a1.361 1.361 0 01-1.364-1.364 1.364 1.364 0 011.364-1.364h18.414a1.362 1.362 0 011.27 1.889 1.36 1.36 0 01-.745.739 1.362 1.362 0 01-.525.1zm0 5.115h-18.414a1.362 1.362 0 01-1.353-1.364 1.366 1.366 0 011.353-1.364h18.414a1.362 1.362 0 011.353 1.364 1.366 1.366 0 01-1.353 1.364z" fill="#fff"/><path d="M662.476 469.372a8.576 8.576 0 01-2.186-6.911 8.57 8.57 0 013.894-6.113l-7.02-29.621 14.859 5.428 4.388 27.297a8.611 8.611 0 01-8.482 12.696 8.618 8.618 0 01-5.453-2.776z" fill="#9E616A"/><path d="M626.746 345.245l5.963 15.333s-2.555 15.334 1.704 18.742c4.259 3.407 2.556 3.407 2.556 5.963a13.083 13.083 0 001.558 5.229 13.078 13.078 0 003.553 4.141c3.407 2.556 18.741 54.52 18.741 54.52h15.334a47.978 47.978 0 010-11.926c.852-5.963-2.556-21.297-4.26-23.852-1.703-2.556 0-5.964 0-11.075 0-5.111-3.407-7.667-3.407-16.185 0-8.519-10.223-74.965-9.371-82.632.852-7.667-8.518-14.482-8.518-14.482h-8.519l-15.334 56.224z" fill="#E4E4E4"/><path d="M665.96 669.223h-11.332l-5.391-43.712 16.725.001-.002 43.711z" fill="#9E616A"/><path d="M668.851 680.208l-36.541-.001v-.462a14.22 14.22 0 0114.222-14.223l6.676-5.064 12.454 5.065h3.189v14.685z" fill="#2F2E41"/><path d="M562.289 668.899l-10.643-3.894 9.953-42.903 15.708 5.747-15.018 41.05z" fill="#9E616A"/><path d="M561.23 680.208l-34.317-12.554.159-.434a14.224 14.224 0 0118.243-8.471l8.009-2.462 9.956 9.034 2.995 1.096-5.045 13.791z" fill="#2F2E41"/><path d="M640.993 464.822s-7.667 37.483 5.111 34.075c12.778-3.407 7.667-35.778 7.667-35.778l-12.778 1.703z" fill="#A0616A"/><path d="M584.769 433.729s-10.222 13.63-10.222 21.297-3.408 75.817-3.408 75.817-25.865 101.483-20.753 106.594c5.111 5.112 23 10.223 25.556 7.667 2.555-2.555 25.013-107.446 25.013-107.446l21.297-57.076 19.593 81.78 1.703 86.891s21.297 5.111 25.557 1.704c4.259-3.408 5.111-86.039 0-115.003-5.112-28.964.851-95.41.851-95.41l-85.187-6.815z" fill="#2F2E41"/><path d="M618.932 251.854c14.114 0 25.556-11.442 25.556-25.556 0-14.115-11.442-25.557-25.556-25.557s-25.556 11.442-25.556 25.557c0 14.114 11.442 25.556 25.556 25.556z" fill="#9E616A"/><path d="M586.473 288.91s7.358-10.963 21.84-25.445c7.667-2.556 20.951-1.066 25.556 0 21.297 28.112 22.637 26.243 28.181 41.95 1.438 4.073 2.156 7.987 1.518 11.181-2.556 12.778 5.537 116.281 6.388 119.689.852 3.407 6.815 7.666.852 7.666s-96.261-3.407-94.558-5.963c1.704-2.555 10.223-149.078 10.223-149.078z" fill="#E4E4E4"/><path opacity=".1" d="M582.572 436.864l25.624-56.378-12.812 59.959-12.812-3.581z" fill="#000"/><path d="M611.201 249.974a43.57 43.57 0 006.574-6.034 14.59 14.59 0 003.562-8.046 8.867 8.867 0 00-3.379-7.854c-2.434-1.72-6.146-1.62-8.166.571.976-3.155 1.868-6.877-.109-9.523-1.8-2.408-5.156-2.817-8.055-3.611a23.337 23.337 0 01-13.494-10.052l4.923 1.019-.549-3.51 4.08 1.418.036-4.888 4.211 2.356a26.888 26.888 0 0118.939-7.057 20.944 20.944 0 0110.043 2.757 14.703 14.703 0 016.543 7.951c2.167-2.249 6.032-2.075 8.614-.317 2.582 1.758 4.099 4.699 5.14 7.645a32.985 32.985 0 011.388 17.653 26.274 26.274 0 01-9.026 15.083 29.305 29.305 0 01-14.7 5.848 54.84 54.84 0 01-15.95-.682" fill="#2F2E41"/><path d="M574.594 469.261a8.576 8.576 0 00.918-10.399 8.572 8.572 0 00-2.626-2.624l7.02-29.621-14.858 5.428-4.389 27.297a8.61 8.61 0 008.482 12.695 8.609 8.609 0 005.453-2.776z" fill="#9E616A"/><path d="M594.992 288.91h-8.519s-9.371 6.815-8.519 14.482c.852 7.667-9.37 74.113-9.37 82.632 0 8.519-3.408 11.074-3.408 16.186 0 5.111 1.704 8.518 0 11.074-1.704 2.556-5.111 17.889-4.259 23.852.495 3.96.495 7.967 0 11.927h15.333s15.334-51.965 18.742-54.52a13.118 13.118 0 005.111-9.371c0-2.555-1.704-2.556 2.555-5.963 4.26-3.408 1.704-18.741 1.704-18.741l5.963-15.334-15.333-56.224z" fill="#E4E4E4"/><path d="M835.973 682.584H368.679a1.174 1.174 0 01-.845-.347 1.19 1.19 0 01.845-2.034h467.294a1.192 1.192 0 01.456 2.292c-.145.06-.3.09-.456.089z" fill="#CACACA"/></svg>