<svg width="121" height="103" fill="none" xmlns="http://www.w3.org/2000/svg"><rect width="121" height="103" rx="16" fill="#fff"/><path d="M60.5 51.5c-3.208 0-5.955-1.142-8.24-3.427-2.284-2.285-3.427-5.031-3.427-8.24 0-3.208 1.143-5.954 3.427-8.239 2.285-2.285 5.032-3.427 8.24-3.427s5.955 1.142 8.24 3.427c2.284 2.285 3.427 5.031 3.427 8.24 0 3.208-1.143 5.954-3.427 8.24-2.285 2.284-5.032 3.426-8.24 3.426zM37.167 74.834v-8.167c0-1.653.425-3.171 1.277-4.556.852-1.384 1.982-2.442 3.39-3.173 3.013-1.507 6.076-2.637 9.187-3.39a40.28 40.28 0 0118.958 0c3.111.757 6.174 1.887 9.188 3.39 1.41.729 2.54 1.787 3.392 3.173a8.52 8.52 0 011.274 4.556v8.167H37.167z" fill="#C8C8C8"/></svg>