<svg xmlns="http://www.w3.org/2000/svg" xmlns:xlink="http://www.w3.org/1999/xlink" width="816" height="1056"><defs><linearGradient id="a"><stop offset="0" stop-color="#001738"/><stop offset="1" stop-color="#000d20"/></linearGradient><linearGradient gradientUnits="userSpaceOnUse" y2="967.412" x2="359.446" y1="239.656" x1="359.446" id="b" xlink:href="#a"/></defs><rect ry="0" height="990" width="765" style="marker:none" color="#000" fill="url(#b)" overflow="visible"/><path style="marker:none" d="M699.028 26.783L285.464 23.13l-4.229 3.653v68.353h457.01l4.036-3.683z" color="#000" fill="#999" overflow="visible"/><path d="M38.562 191.958l.093-.046 1.964-1.98" fill="none" stroke="#fff" stroke-width=".01" stroke-linecap="round" stroke-linejoin="bevel" transform="matrix(2.05445 0 0 1.81309 201.996 -252.97)"/><path d="M703.125 23.13H285.14v68.255h457.221V57.257z" style="marker:none" color="#000" fill="#fff" overflow="visible"/><path style="marker:none" d="M593.146 193.697l-173.993-2.015-1.779 2.015v37.7h192.272l1.698-2.032z" color="#000" fill="#999" overflow="visible"/><path d="M38.562 191.958l.093-.046 1.964-1.98" fill="none" stroke="#fff" stroke-width=".01" stroke-linecap="round" stroke-linejoin="bevel" transform="matrix(.86434 0 0 1 384.037 39.4)"/><path style="marker:none" d="M594.873 191.685H419.446v37.7H611.34v-18.85z" color="#000" fill="#fff" overflow="visible"/><g fill="none" stroke="#acf" stroke-opacity=".258" stroke-linejoin="round"><path d="M282.945 179.795V93.193l-17.841 19.947-11.027 98.93 11.027 41.195zM178.501 296.567l86.603-43.302-11.027-41.195-93.417 17.841-46.709 52.222z"/><path d="M282.945 93.193l-75.576-55.63-64.55-14.433 35.682 46.708 86.603 43.302zM254.077 212.07l11.027-98.93L178.5 69.838l-64.55 72.17 46.71 87.903z"/><path d="M178.501 69.838L142.82 23.13l-86.604 43.3-17.84 73.47 75.575 2.106zm-64.55 72.169l-75.576-2.106v86.603l75.576 55.629 46.71-52.222z"/></g><path style="marker:none" d="M612.747 786.762c270.313-156.065-347.168-220.965-115.21-12.11 231.958 208.856 102.87-398.457-24.085-113.312-126.955 285.144 410.744-25.296 100.324-57.923-310.42-32.626 150.985 382.825 86.09 77.515-64.896-305.309-317.431 261.895-47.119 105.83z" color="#000" fill="none" stroke="#acf" stroke-opacity=".258" overflow="visible"/><g opacity=".256" color="#000" fill="none" stroke-width="2"><path style="marker:none" d="M1402.778 448.333h-263.89V170.556" stroke="#ccc" overflow="visible" transform="matrix(1.27486 0 0 .26914 -1069.985 242.484)"/><path style="marker:none" d="M1138.889 448.333c12.566-83.11 25.132-165.327 37.698-217.175 12.566-51.848 25.133-72.096 37.699-53.638 12.566 18.458 25.132 75.426 37.698 150.29 12.566 74.864 25.132 166.15 37.699 241.047 12.566 74.896 25.132 131.76 37.698 150.29 12.566 18.53 25.132-1.849 37.698-53.638 12.566-51.79 25.133-134.065 37.699-217.176" stroke="#acf" overflow="visible" transform="matrix(1.27486 0 0 .26914 -1069.985 242.484)"/><path d="M1138.889 170.556c12.566.037 25.132 39.63 37.698 104.586 12.566 64.955 25.133 153.967 37.699 235.003 12.566 81.035 25.132 152.363 37.698 188.457 12.566 36.095 25.132 36.027 37.699 0 12.566-36.026 25.132-107.438 37.698-188.457 12.566-81.02 25.132-170.001 37.698-235.003 12.566-65.002 25.133-104.55 37.699-104.586" style="marker:none" stroke="#ff8080" overflow="visible" transform="matrix(1.27486 0 0 .26914 -1069.985 242.484)"/></g><g opacity=".749" fill="none"><path d="M59.622 854.171l94.98-80.248V563.468" opacity=".604" stroke="#00f" stroke-width=".531"/><path d="M264.452 670.06L154.741 773.879V985.02" opacity=".604" stroke="red" stroke-width=".531"/><path d="M5.955 773.923h330.903" opacity=".604" stroke="#0f0" stroke-width=".531"/><g stroke="#fff" stroke-opacity=".205" stroke-width=".769"><path d="M163.69 760.356a4.397 76.93 2.297 11-8.785-.353 4.397 76.93 2.297 118.786.353z"/><path d="M188.985 769.898a31.237 76.93 18.126 11-59.374-19.436 31.237 76.93 18.126 1159.374 19.436z"/><path d="M199.181 793.376a51.891 76.93 39.772 11-79.767-66.393 51.891 76.93 39.772 1179.767 66.393z"/><path d="M175.623 820.269a62.267 76.93 74.8 11-32.65-120.179 62.267 76.93 74.8 1132.65 120.179z"/><path d="M187.47 706.853a76.93 60.311 27.846 11-56.344 106.654 76.93 60.311 27.846 1156.343-106.654z"/><path d="M198.664 735.6a76.93 46.41 58.02 11-78.732 49.16 76.93 46.41 58.02 1178.732-49.16z"/><path d="M182.028 754.988a76.93 23.316 77.133 11-45.46 10.384 76.93 23.316 77.133 1145.46-10.384z"/><path d="M183.07 820.113a23.773 13.636 0 11-47.545 0 23.773 13.636 0 1147.546 0z"/><path d="M204.516 811.162a45.219 25.937 0 11-90.437 0 45.219 25.937 0 1190.437 0z"/><path d="M221.536 797.22a62.238 35.7 0 11-124.477 0 62.238 35.7 0 11124.477 0z"/><path d="M232.463 779.653a73.166 41.967 0 11-146.33 0 73.166 41.967 0 11146.33 0z"/><path d="M236.229 760.18a76.93 44.126 0 11-153.862 0 76.93 44.126 0 11153.862 0z"/><path d="M232.463 740.706a73.166 41.967 0 11-146.33 0 73.166 41.967 0 11146.33 0z"/><path d="M221.536 723.139a62.238 35.7 0 11-124.477 0 62.238 35.7 0 11124.477 0z"/><path d="M204.516 709.197a45.219 25.937 0 11-90.437 0 45.219 25.937 0 1190.437 0z"/><path d="M183.07 700.246a23.773 13.636 0 11-47.545 0 23.773 13.636 0 1147.546 0z"/><path d="M236.229 760.18a76.93 76.93 0 11-153.862 0 76.93 76.93 0 11153.862 0z"/></g></g><path d="M241.93 192.296l-201.302-2.015-2.059 2.015v37.7h222.45l1.964-2.031z" style="marker:none" color="#000" fill="#999" overflow="visible"/><path d="M38.562 229.958l.093-.046 1.964-1.98" fill="none" stroke="#fff" stroke-width=".01" stroke-linecap="round" stroke-linejoin="bevel"/><path d="M243.93 190.296H40.569v37.7h222.45v-18.85z" style="marker:none" color="#000" fill="#fff" overflow="visible"/><path d="M241.878 739.319l-201.302-2.015-2.058 2.015v37.7h222.45l1.964-2.032z" style="marker:none" color="#000" fill="#999" overflow="visible"/><path d="M38.511 776.98l.092-.046 1.964-1.98" fill="none" stroke="#fff" stroke-width=".01" stroke-linecap="round" stroke-linejoin="bevel"/><path d="M243.93 737.312H40.569v37.7h222.45v-18.85z" style="marker:none" color="#000" fill="#fff" overflow="visible"/><path style="marker:none" d="M241.875 386.76l-201.302-2.015-2.059 2.015v37.7h222.45l1.964-2.032z" color="#000" fill="#999" overflow="visible"/><path d="M38.507 424.421l.093-.046 1.964-1.98" fill="none" stroke="#fff" stroke-width=".01" stroke-linecap="round" stroke-linejoin="bevel"/><path style="marker:none" d="M243.93 384.74H40.569v37.7h222.45v-18.85z" color="#000" fill="#fff" overflow="visible"/><path d="M593.176 511.776l-173.993-2.015-1.78 2.015v37.7h192.273l1.697-2.032z" style="marker:none" color="#000" fill="#999" overflow="visible"/><path d="M38.562 191.958l.093-.046 1.964-1.98" fill="none" stroke="#fff" stroke-width=".01" stroke-linecap="round" stroke-linejoin="bevel" transform="matrix(.86434 0 0 1 384.067 357.48)"/><path d="M594.873 509.74H419.446v37.7H611.34v-18.85z" style="marker:none" color="#000" fill="#fff" overflow="visible"/><g font-size="40" font-weight="400" letter-spacing="0" word-spacing="0" font-family="Sans"><text style="line-height:125%" x="308.589" y="71.888" fill="#162d50"><tspan x="308.589" y="71.888"><tspan x="308.589" y="71.888" style="-inkscape-font-specification:Electrolize" font-family="Electrolize">Marcin Obłój</tspan></tspan></text><text style="line-height:125%" x="496.189" y="130.702" fill="#fff"><tspan x="496.189" y="130.702" style="text-align:start"><tspan x="496.189" y="130.702" style="text-align:start;-inkscape-font-specification:Electrolize" dx="0 0 0 0 0 0 0 0 0 0 0 0 0 0 0 0 0" font-size="20" font-family="Electrolize">Marcix444@gmail.com</tspan></tspan><tspan x="537.4" y="155.702" style="text-align:start"><tspan x="537.4" y="155.702" style="text-align:start;-inkscape-font-specification:Electrolize" font-size="20" font-family="Electrolize">8444492909</tspan></tspan></text><text style="line-height:125%" x="427.155" y="219.332" fill="#162d50"><tspan x="427.155" y="219.332"><tspan x="427.155" y="219.332" style="-inkscape-font-specification:Electrolize" font-size="24" font-family="Electrolize">Education</tspan></tspan></text><text style="line-height:125%" x="426.585" y="246.822" fill="#fff"><tspan x="426.585" y="246.822"><tspan x="426.585" y="246.822" style="-inkscape-font-specification:Electrolize" font-size="16" font-family="Electrolize">2015 </tspan></tspan><tspan x="426.585" y="266.822"><tspan x="426.585" y="266.822" style="-inkscape-font-specification:Electrolize" font-size="16" font-family="Electrolize">Digital Creativity at Digital Invaders, </tspan></tspan><tspan x="426.585" y="286.822"><tspan x="426.585" y="286.822" style="-inkscape-font-specification:Electrolize" font-size="16" font-family="Electrolize">GRUPO W (Coahuila).</tspan></tspan><tspan x="426.585" y="326.822"><tspan x="426.585" y="326.822" style="-inkscape-font-specification:Electrolize" font-size="16" font-family="Electrolize">2012/2015 </tspan></tspan><tspan x="426.585" y="346.822"><tspan x="426.585" y="346.822" style="-inkscape-font-specification:Electrolize" font-size="16" font-family="Electrolize">Math Degree at Science Faculty,</tspan></tspan><tspan x="426.585" y="366.822"><tspan x="426.585" y="366.822" style="-inkscape-font-specification:Electrolize" font-size="16" font-family="Electrolize">UAdeC (Coahuila).</tspan></tspan><tspan x="426.585" y="386.822"><tspan x="426.585" y="386.822" style="-inkscape-font-specification:Electrolize" font-size="16" font-family="Electrolize">8/9 Semesters Currently Studying</tspan></tspan><tspan x="426.585" y="426.822"><tspan x="426.585" y="426.822" style="-inkscape-font-specification:Electrolize" font-size="16" font-family="Electrolize">2009/2012</tspan></tspan><tspan x="426.585" y="446.822"><tspan x="426.585" y="446.822" style="-inkscape-font-specification:Electrolize" font-size="16" font-family="Electrolize">Physics Degree at Science Faculty, </tspan></tspan><tspan x="426.585" y="466.822"><tspan x="426.585" y="466.822" style="-inkscape-font-specification:Electrolize" font-size="16" font-family="Electrolize">UASLP (San Luis Potosí).</tspan></tspan><tspan x="426.585" y="486.822"><tspan x="426.585" y="486.822" style="-inkscape-font-specification:Electrolize" font-size="16" font-family="Electrolize">6/8 Semesters.</tspan></tspan></text><text style="line-height:125%" x="48.276" y="412.239" fill="#162d50"><tspan x="48.276" y="412.239"><tspan x="48.276" y="412.239" style="-inkscape-font-specification:Electrolize" font-size="24" font-family="Electrolize">Work Experience</tspan></tspan></text><text style="line-height:125%" x="40.569" y="441.728" fill="#fff"><tspan x="40.569" y="441.728"><tspan x="40.569" y="441.728" style="-inkscape-font-specification:Electrolize" font-size="16" font-family="Electrolize">2015 </tspan></tspan><tspan x="40.569" y="461.728"><tspan x="40.569" y="461.728" style="-inkscape-font-specification:Electrolize" font-size="16" font-family="Electrolize">Copisa de Saltillo S.A.(Xerox Distributor)</tspan></tspan><tspan x="40.569" y="481.728"><tspan x="40.569" y="481.728" style="-inkscape-font-specification:Electrolize" font-size="16" font-family="Electrolize"> -Customer Service and Technical Support.</tspan></tspan><tspan x="40.569" y="521.728"><tspan x="40.569" y="521.728" style="-inkscape-font-specification:Electrolize" font-size="16" font-family="Electrolize">2011/2014 </tspan></tspan><tspan x="40.569" y="541.728"><tspan x="40.569" y="541.728" style="-inkscape-font-specification:Electrolize" font-size="16" font-family="Electrolize">Freelance</tspan></tspan><tspan x="40.569" y="561.728"><tspan x="40.569" y="561.728" style="-inkscape-font-specification:Electrolize" font-size="16" font-family="Electrolize"> -Social Design</tspan></tspan><tspan x="40.569" y="581.728"><tspan x="40.569" y="581.728" style="-inkscape-font-specification:Electrolize" font-size="16" font-family="Electrolize"> -Creating Experimental Devices</tspan></tspan><tspan x="40.569" y="601.728"><tspan x="40.569" y="601.728" style="-inkscape-font-specification:Electrolize" font-size="16" font-family="Electrolize"> -Audio recording and production</tspan></tspan><tspan x="40.569" y="641.728"><tspan x="40.569" y="641.728" style="-inkscape-font-specification:Electrolize" font-size="16" font-family="Electrolize">2010/2011</tspan></tspan><tspan x="40.569" y="661.728"><tspan x="40.569" y="661.728" style="-inkscape-font-specification:Electrolize" font-size="16" font-family="Electrolize">Netsmart Technologies.</tspan></tspan><tspan x="40.569" y="681.728"><tspan x="40.569" y="681.728" style="-inkscape-font-specification:Electrolize" font-size="16" font-family="Electrolize"> -Customer Service</tspan></tspan><tspan x="40.569" y="701.728"><tspan x="40.569" y="701.728" style="-inkscape-font-specification:Electrolize" font-size="16" font-family="Electrolize"> -Algorithms optimization.</tspan></tspan></text><text style="line-height:125%" x="40.569" y="790.853" fill="#fff"><tspan x="40.569" y="790.853"><tspan x="40.569" y="790.853" style="-inkscape-font-specification:Electrolize" dx="0 0 0 0 0 0 0 0 0 0 0 0 0 0 0 0 0 0 0 0 0 0 0 0 0 0 0" font-size="16" font-family="Electrolize">Interactive SVG animation.</tspan></tspan><tspan x="40.569" y="810.853"><tspan x="40.569" y="810.853" style="-inkscape-font-specification:Electrolize" dx="0 0 0 0 0 0 0 0 0" font-size="16" font-family="Electrolize">Arduino.</tspan></tspan><tspan x="40.569" y="830.853"><tspan x="40.569" y="830.853" style="-inkscape-font-specification:Electrolize" dx="0 0 0 0 0 0 0 0 0 0 0 0" font-size="16" font-family="Electrolize">Processing.</tspan></tspan><tspan x="40.569" y="850.853"><tspan x="40.569" y="850.853" style="-inkscape-font-specification:Electrolize" dx="0 0 0 0 0" font-size="16" font-family="Electrolize">HTML</tspan></tspan><tspan x="40.569" y="870.853"><tspan x="40.569" y="870.853" style="-inkscape-font-specification:Electrolize" dx="0 0 0 0" font-size="16" font-family="Electrolize">CSS</tspan></tspan><tspan x="40.569" y="890.853"><tspan x="40.569" y="890.853" style="-inkscape-font-specification:Electrolize" font-size="16" font-family="Electrolize">JS</tspan></tspan></text><text style="line-height:125%" x="48.569" y="217.245" fill="#162d50"><tspan x="48.569" y="217.245"><tspan x="48.569" y="217.245" style="-inkscape-font-specification:Electrolize" font-size="24" font-family="Electrolize">Who am I?</tspan></tspan></text><text style="line-height:125%" x="40.569" y="247.573" fill="#fff"><tspan x="40.569" y="247.573"><tspan x="40.569" y="247.573" style="-inkscape-font-specification:Electrolize" font-size="16" font-family="Electrolize">I am a mathematician who seeks solutions </tspan></tspan><tspan x="40.569" y="267.573"><tspan x="40.569" y="267.573" style="-inkscape-font-specification:Electrolize" font-size="16" font-family="Electrolize">to real problems , Knowing that there are </tspan></tspan><tspan x="40.569" y="287.573"><tspan x="40.569" y="287.573" style="-inkscape-font-specification:Electrolize" font-size="16" font-family="Electrolize">several ways to do so, always looking for </tspan></tspan><tspan x="40.569" y="307.573"><tspan x="40.569" y="307.573" style="-inkscape-font-specification:Electrolize" font-size="16" font-family="Electrolize">the most efficient choice . I love to creating </tspan></tspan><tspan x="40.569" y="327.573"><tspan x="40.569" y="327.573" style="-inkscape-font-specification:Electrolize" font-size="16" font-family="Electrolize">things that simplify my life and my </tspan></tspan><tspan x="40.569" y="347.573"><tspan x="40.569" y="347.573" style="-inkscape-font-specification:Electrolize" font-size="16" font-family="Electrolize">enviroment.</tspan></tspan></text><text style="line-height:125%" x="49.468" y="763.363" fill="#162d50"><tspan x="49.468" y="763.363"><tspan x="49.468" y="763.363" style="-inkscape-font-specification:Electrolize" font-size="24" font-family="Electrolize">Skills</tspan></tspan></text><text style="line-height:125%" x="426.715" y="565.567" fill="#fff"><tspan x="426.715" y="565.567"><tspan x="426.715" y="565.567" style="-inkscape-font-specification:Electrolize" font-size="14" font-family="Electrolize">Renewable Energy Forum </tspan></tspan><tspan x="426.715" y="583.067"><tspan x="426.715" y="583.067" style="-inkscape-font-specification:Electrolize" font-size="14" font-family="Electrolize">UASLP San Luis Potosí, San Luis Potosí</tspan></tspan><tspan x="426.715" y="600.567"><tspan x="426.715" y="600.567" style="-inkscape-font-specification:Electrolize" font-size="14" font-family="Electrolize">2nd Place with the work:</tspan></tspan><tspan x="426.715" y="618.067"><tspan x="426.715" y="618.067" style="-inkscape-font-specification:Electrolize" font-size="14" font-family="Electrolize">&quot;Design and Construction of a Solar </tspan></tspan><tspan x="426.715" y="635.567"><tspan x="426.715" y="635.567" style="-inkscape-font-specification:Electrolize" font-size="14" font-family="Electrolize">Concentrator</tspan></tspan><tspan x="426.715" y="653.067"><tspan x="426.715" y="653.067" style="-inkscape-font-specification:Electrolize" font-size="14" font-family="Electrolize">with Reflective Polymeric Membranes.&quot;</tspan></tspan><tspan x="426.715" y="688.067"><tspan x="426.715" y="688.067" style="-inkscape-font-specification:Electrolize" font-size="14" font-family="Electrolize">First Meeting of Young Scientists </tspan></tspan><tspan x="426.715" y="705.567"><tspan x="426.715" y="705.567" style="-inkscape-font-specification:Electrolize" font-size="14" font-family="Electrolize">ITL Torreón, Coahuila.</tspan></tspan><tspan x="426.715" y="723.067"><tspan x="426.715" y="723.067" style="-inkscape-font-specification:Electrolize" font-size="14" font-family="Electrolize">1st place on Software Development with the</tspan></tspan><tspan x="426.715" y="740.567"><tspan x="426.715" y="740.567" style="-inkscape-font-specification:Electrolize" font-size="14" font-family="Electrolize">work:</tspan></tspan><tspan x="426.715" y="758.067"><tspan x="426.715" y="758.067" style="-inkscape-font-specification:Electrolize" font-size="14" font-family="Electrolize">&quot;Sarape Linux&quot;</tspan></tspan><tspan x="426.715" y="793.067"><tspan x="426.715" y="793.067" style="-inkscape-font-specification:Electrolize" font-size="14" font-family="Electrolize">Presea Ocelotl UAdeC Saltillo, Coahuila.</tspan></tspan><tspan x="426.715" y="810.567"><tspan x="426.715" y="810.567" style="-inkscape-font-specification:Electrolize" font-size="14" font-family="Electrolize">Technological Innovation Award with the work:</tspan></tspan><tspan x="426.715" y="828.067"><tspan x="426.715" y="828.067" style="-inkscape-font-specification:Electrolize" font-size="14" font-family="Electrolize">&quot;Design and Construction of a </tspan></tspan><tspan x="426.715" y="845.567"><tspan x="426.715" y="845.567" style="-inkscape-font-specification:Electrolize" font-size="14" font-family="Electrolize">Vibration Table for the Study of </tspan></tspan><tspan x="426.715" y="863.067"><tspan x="426.715" y="863.067" style="-inkscape-font-specification:Electrolize" font-size="14" font-family="Electrolize">Granular Matter. (Low Cost Modal Shaker)&quot;</tspan></tspan></text><text style="line-height:125%" x="429.419" y="537.997" fill="#162d50"><tspan x="429.419" y="537.997"><tspan x="429.419" y="537.997" style="-inkscape-font-specification:Electrolize" font-size="24" font-family="Electrolize">Awards</tspan></tspan></text></g></svg>