<svg width="31" height="30" fill="none" xmlns="http://www.w3.org/2000/svg"><path d="M10 2.5h10.5c4 0 7.25 3.25 7.25 7.25v10.5a7.25 7.25 0 01-7.25 7.25H10c-4 0-7.25-3.25-7.25-7.25V9.75A7.25 7.25 0 0110 2.5zM9.75 5a4.5 4.5 0 00-4.5 4.5v11c0 2.488 2.013 4.5 4.5 4.5h11a4.5 4.5 0 004.5-4.5v-11c0-2.487-2.012-4.5-4.5-4.5h-11zm12.063 1.875a1.563 1.563 0 110 3.125 1.563 1.563 0 010-3.125zM15.25 8.75a6.25 6.25 0 110 12.5 6.25 6.25 0 010-12.5zm0 2.5a3.75 3.75 0 100 7.5 3.75 3.75 0 000-7.5z" fill="#222831"/></svg>