<svg width="22" height="28" fill="none" xmlns="http://www.w3.org/2000/svg"><path d="M5.75 17.75a.75.75 0 110-1.5h10.5a.75.75 0 110 1.5H5.75zm0 3.75a.75.75 0 110-1.5h10.5a.75.75 0 110 1.5H5.75z" fill="#222831"/><path fill-rule="evenodd" clip-rule="evenodd" d="M12.777.5H2.75A2.25 2.25 0 00.5 2.75v22.5a2.25 2.25 0 002.25 2.25h16.5a2.25 2.25 0 002.25-2.25V9.803a2.25 2.25 0 00-.593-1.521l-6.47-7.053A2.25 2.25 0 0012.777.5zM2 2.75A.75.75 0 012.75 2h10.027a.75.75 0 01.554.243l6.471 7.053a.75.75 0 01.198.507V25.25a.75.75 0 01-.75.75H2.75a.75.75 0 01-.75-.75V2.75z" fill="#222831"/><path d="M13.25 2.15V9.2h7.05" stroke="#222831" stroke-linecap="round" stroke-linejoin="round"/><path d="M8.2 8.2A1.6 1.6 0 108.3 5a1.6 1.6 0 00-.1 3.2z" fill="#222831"/><path fill-rule="evenodd" clip-rule="evenodd" d="M11.399 11.666c0-1.701-1.432-2.933-3.2-2.933C6.434 8.733 5 9.963 5 11.666v.8a.534.534 0 00.534.533h5.333a.534.534 0 00.532-.532v-.801z" fill="#222831"/></svg>