<svg width="365" height="109" fill="none" xmlns="http://www.w3.org/2000/svg"><path d="M.925 49.362c-1.945-15.26 7.966-29.518 22.947-33.011l62.22-14.507a29.999 29.999 0 0115.666.553l80.655 24.914a30 30 0 0014.377.823L345.651.253A14.775 14.775 0 01348.372 0c10.402 0 17.551 10.459 13.773 20.15l-11.797 30.26a16.998 16.998 0 002.025 16.081l10.044 14.006c6.373 8.887-2.296 20.753-12.7 17.383a11.33 11.33 0 00-5.527-.367l-57.518 10.499a29.962 29.962 0 01-5.388.488H162L65.5 97H33.417C18.316 97 5.57 85.775 3.658 70.795L.925 49.362z" fill="#003E41"/></svg>