<svg width="27" height="22" fill="none" xmlns="http://www.w3.org/2000/svg"><path d="M26.4 2.875c-.962.438-2 .725-3.075.862a5.373 5.373 0 002.35-2.974 10.801 10.801 0 01-3.4 1.312C21.288 1 19.9.375 18.325.375c-2.938 0-5.337 2.4-5.337 5.362 0 .425.05.838.137 1.226a15.243 15.243 0 01-11.05-5.6A5.305 5.305 0 001.35 4.05c0 1.862.938 3.513 2.387 4.45-.887 0-1.712-.25-2.437-.625v.037c0 2.6 1.85 4.776 4.3 5.263a5.25 5.25 0 01-2.412.087 5.35 5.35 0 005 3.726 10.65 10.65 0 01-6.663 2.3c-.425 0-.85-.026-1.275-.076a15.18 15.18 0 008.225 2.413c9.85 0 15.263-8.175 15.263-15.262 0-.238 0-.463-.013-.7 1.05-.75 1.95-1.7 2.675-2.788z" fill="#222831"/></svg>